<?xml version="1.0" encoding="UTF-8"?>
<svg version="1.1" xmlns="http://www.w3.org/2000/svg" width="1024" height="1024">
<path d="M0 0 C6.78576813 3.18956517 11.52202601 7.55138002 15.8359375 13.66796875 C16.2676123 14.27398926 16.69928711 14.88000977 17.14404297 15.50439453 C21.22417416 21.40097021 24.18484063 27.58987804 26.8984375 34.23046875 C28.99593497 31.48567236 30.94668502 28.68447719 32.8359375 25.79296875 C40.92450983 13.67004707 40.92450983 13.67004707 48.00390625 11.62109375 C52.90246148 10.77796893 56.61727827 11.17118408 60.9296875 13.6953125 C76.98630978 26.21565487 82.77312101 50.73920711 86.6484375 69.66796875 C86.84711426 70.63065674 87.04579102 71.59334473 87.25048828 72.58520508 C90.43950836 89.1164621 91.30826531 105.67890488 91.2734375 122.48046875 C91.27322601 123.43180695 91.27301453 124.38314514 91.27279663 125.36331177 C91.19866652 159.02575891 88.91723545 205.62572723 64.56640625 231.73046875 C59.16822649 236.74370368 54.59138814 239.78339198 46.9453125 239.5390625 C38.78049818 238.30810767 34.28622033 231.43691998 29.7109375 225.29296875 C29.1128125 224.61234375 28.5146875 223.93171875 27.8984375 223.23046875 C26.9084375 223.23046875 25.9184375 223.23046875 24.8984375 223.23046875 C24.56972656 223.98070312 24.24101562 224.7309375 23.90234375 225.50390625 C19.06456713 235.9136478 11.90031335 246.60283848 0.8984375 251.23046875 C-4.61029247 252.3101483 -9.42160894 252.02442696 -14.3515625 249.23046875 C-21.39252973 243.93483825 -26.18165835 237.1235549 -30.1640625 229.35546875 C-30.59033936 228.52885742 -31.01661621 227.70224609 -31.45581055 226.85058594 C-47.50431276 194.84495655 -50.32425693 156.81019452 -50.3515625 121.54296875 C-50.35223724 120.74565338 -50.35291199 119.94833801 -50.35360718 119.12686157 C-50.30561896 83.00877367 -47.56604075 33.54523132 -20.91015625 5.78125 C-14.68882374 0.4467597 -8.17571169 -2.99370856 0 0 Z M-0.6015625 41.29296875 C-9.19881472 51.3947401 -13.49556921 63.55482092 -16.2890625 76.35546875 C-16.52133545 77.39948853 -16.52133545 77.39948853 -16.75830078 78.46459961 C-19.89777255 93.93478233 -20.47978212 109.68236674 -20.4140625 125.41796875 C-20.41257202 126.3078952 -20.41108154 127.19782166 -20.4095459 128.11471558 C-20.3669642 142.31173926 -19.78138309 156.25078567 -17.1015625 170.23046875 C-16.95702637 170.98457031 -16.81249023 171.73867188 -16.66357422 172.515625 C-13.49326517 188.21620313 -8.48460759 204.41623568 4.8984375 214.23046875 C8.6633762 215.48544832 10.92852368 215.75111319 14.8984375 215.23046875 C17.0813395 213.66286306 17.0813395 213.66286306 19.13671875 211.69921875 C19.84481689 211.05404297 20.55291504 210.40886719 21.2824707 209.74414062 C21.81573975 209.24462891 22.34900879 208.74511719 22.8984375 208.23046875 C22.70733398 207.55918945 22.51623047 206.88791016 22.31933594 206.19628906 C15.57337372 182.19170391 11.37903019 158.19919259 10.8984375 133.23046875 C10.87797363 132.54082031 10.85750977 131.85117187 10.83642578 131.140625 C10.08516635 105.26253137 12.69810462 78.13200022 21.05566406 53.55932617 C22.97571445 47.9534844 22.97571445 47.9534844 21.8984375 42.23046875 C18.77735514 38.88101451 16.43257207 37.03112207 11.8984375 36.23046875 C6.34448929 36.23046875 3.61039095 37.81810716 -0.6015625 41.29296875 Z M54.8984375 71.23046875 C44.5390779 87.6835693 43.97503858 111.41031036 44.8984375 130.23046875 C44.93952637 131.07834961 44.98061523 131.92623047 45.02294922 132.79980469 C45.59478247 143.26818981 46.60243448 153.49369093 49.2109375 163.66796875 C49.39938232 164.41788086 49.58782715 165.16779297 49.78198242 165.94042969 C51.62088109 172.51206109 54.73998712 178.64133155 59.8984375 183.23046875 C63.05000176 184.39157137 64.36173599 184.4660938 67.4609375 183.10546875 C77.54658767 175.34727631 79.32604365 161.16882405 80.8984375 149.23046875 C83.39328992 125.9658665 86.76092804 89.09627537 71.2109375 69.41796875 C68.61652265 66.96379254 67.65460452 66.33358243 64.1484375 65.85546875 C59.89087468 66.346726 57.62541877 68.08514377 54.8984375 71.23046875 Z M25.8984375 219.23046875 C26.2284375 219.89046875 26.5584375 220.55046875 26.8984375 221.23046875 C27.2284375 220.57046875 27.5584375 219.91046875 27.8984375 219.23046875 C27.2384375 219.23046875 26.5784375 219.23046875 25.8984375 219.23046875 Z " fill="#3AD3E0" transform="translate(138.1015625,368.76953125)"/>
<path d="M0 0 C13.30250194 13.12036607 20.94060316 30.6004337 21.68701172 49.29174805 C21.2332947 67.12849836 14.82622606 81.48646397 4.37451172 95.60424805 C5.84689646 99.13954617 7.78451931 101.0782881 10.68701172 103.54174805 C11.48494141 104.23655273 12.28287109 104.93135742 13.10498047 105.6472168 C14.43916387 106.79769164 15.77456304 107.9467639 17.11279297 109.0925293 C18.49951172 110.35424805 18.49951172 110.35424805 20.37451172 112.60424805 C20.20662284 115.50033112 19.43800314 116.53835356 17.41357422 118.6394043 C16.61693359 119.30842773 15.82029297 119.97745117 14.99951172 120.66674805 C12.3592537 122.90709727 9.80436372 125.13821418 7.37451172 127.60424805 C1.04117839 121.27091471 -5.29215495 114.93758138 -11.62548828 108.60424805 C-12.21974609 108.9909668 -12.81400391 109.37768555 -13.42626953 109.77612305 C-31.15235354 120.91350709 -49.55702369 122.53473955 -69.64550781 118.10473633 C-74.32312727 116.9223541 -78.43969163 114.96117355 -82.62548828 112.60424805 C-83.52525391 112.11182617 -84.42501953 111.6194043 -85.35205078 111.11206055 C-101.08421385 101.85002651 -112.17630249 87.14954979 -117.19189453 69.62524414 C-121.82315096 51.05473285 -119.09621548 31.17432698 -109.60986328 14.67456055 C-98.35305634 -2.74246751 -82.56789942 -14.71595225 -62.17236328 -19.14575195 C-39.25011422 -23.04741137 -17.0376817 -15.84842602 0 0 Z M-86.58642578 16.72924805 C-96.33330595 30.47197564 -99.31306375 44.25706027 -97.19580078 61.00268555 C-94.62423286 74.11450716 -88.16341478 85.31481227 -77.62548828 93.60424805 C-65.75328354 100.97267447 -54.15138981 103.39120342 -40.26611328 101.03393555 C-35.03566198 99.79788362 -30.2740811 98.31592719 -25.62548828 95.60424805 C-26.98701898 92.61020239 -28.55161249 90.35596608 -30.75048828 87.91674805 C-31.36279297 87.23225586 -31.97509766 86.54776367 -32.60595703 85.8425293 C-33.27240234 85.10389648 -33.93884766 84.36526367 -34.62548828 83.60424805 C-36.10546749 81.93830286 -37.58464803 80.27164779 -39.06298828 78.60424805 C-40.25017419 77.27063504 -41.43755817 75.93719819 -42.62548828 74.60424805 C-41.46077019 73.43952996 -40.29457783 72.27625418 -39.12158203 71.11987305 C-38.08748021 70.0722712 -37.08092677 68.99701322 -36.09814453 67.90112305 C-34.56298828 66.22924805 -34.56298828 66.22924805 -31.62548828 63.60424805 C-29.16092275 63.78510883 -27.9820461 64.28177166 -26.14916992 65.93945312 C-25.69920654 66.49528076 -25.24924316 67.0511084 -24.78564453 67.6237793 C-24.2796875 68.23415039 -23.77373047 68.84452148 -23.25244141 69.47338867 C-22.73617187 70.11469727 -22.21990234 70.75600586 -21.68798828 71.41674805 C-18.26305284 75.62575675 -15.04406529 79.37372305 -10.62548828 82.60424805 C-1.82132368 70.01140606 1.06077031 56.34167005 -1.12158203 41.15112305 C-4.04270857 27.22213547 -10.90860205 14.83074623 -22.87548828 6.66674805 C-44.13044378 -5.63097308 -70.535425 -2.41521834 -86.58642578 16.72924805 Z " fill="#3CD3DF" transform="translate(430.62548828125,424.395751953125)"/>
<path d="M0 0 C-1.28062485 1.7074998 -2.61767557 3.37373596 -4 5 C-4.66 5 -5.32 5 -6 5 C-6 5.66 -6 6.32 -6 7 C-6.66 7 -7.32 7 -8 7 C-8 7.66 -8 8.32 -8 9 C-8.66 9 -9.32 9 -10 9 C-10.268125 9.59296875 -10.53625 10.1859375 -10.8125 10.796875 C-12.01026288 13.01904035 -13.24810161 14.44756608 -15 16.25 C-32.47816801 35.87652616 -41.24799438 62.23122011 -44 88 C-44.10957031 88.93972656 -44.21914063 89.87945312 -44.33203125 90.84765625 C-48.50411694 132.17911851 -38.25396009 173.69119218 -12.40869141 206.33691406 C-11.05666255 207.93310481 -9.64259958 209.38567309 -8.13671875 210.8359375 C-6 213 -6 213 -6 215 C-5.195625 215.2475 -4.39125 215.495 -3.5625 215.75 C-2.716875 216.1625 -1.87125 216.575 -1 217 C-0.33984375 219.078125 -0.33984375 219.078125 0 221 C-19.99980515 215.28576996 -36.22993835 203.23022022 -51 189 C-51.71671875 188.34644531 -52.4334375 187.69289063 -53.171875 187.01953125 C-72.40723208 168.97676631 -84.56310511 140.5901832 -85.40429688 114.47900391 C-85.82051555 81.05297207 -71.93070328 52.60266528 -49 29 C-46.43806257 26.52310613 -43.76954294 24.24133114 -41 22 C-39.56527344 20.82630859 -39.56527344 20.82630859 -38.1015625 19.62890625 C-9.6383259 -3.2127753 -9.6383259 -3.2127753 0 0 Z " fill="#3BD3E0" transform="translate(98,383)"/>
<path d="M0 0 C11.98759474 0.23597627 23.33040547 5.03971656 32.234375 12.8984375 C41.32669485 22.50630126 44.36222572 34.99906051 44.625 47.875 C44.4375 51.3125 44.4375 51.3125 43.4375 55.3125 C8.7875 55.8075 8.7875 55.8075 -26.5625 56.3125 C-24.32283173 64.01977093 -24.32283173 64.01977093 -20.1875 69.6875 C-19.62289062 70.31398438 -19.05828125 70.94046875 -18.4765625 71.5859375 C-12.12283713 77.31725712 -4.22802246 78.54856344 4.15625 78.19921875 C11.41038516 77.06289062 18.23927831 73.51072169 23.4375 68.3125 C26.96894562 68.61705999 28.62910449 70.17339604 31 72.6875 C31.86818359 73.59628906 31.86818359 73.59628906 32.75390625 74.5234375 C33.30949219 75.11382813 33.86507812 75.70421875 34.4375 76.3125 C35.434089 77.3158994 36.43293038 78.31709059 37.4375 79.3125 C29.81703996 89.4044606 19.75700233 94.91222124 7.34375 96.77734375 C-6.39515214 98.23301314 -18.40676476 95.55804344 -29.5625 87.3125 C-30.11550781 86.91675781 -30.66851563 86.52101563 -31.23828125 86.11328125 C-41.03222633 78.53437474 -46.53815677 66.32487636 -48.5625 54.3125 C-49.88566052 40.08852442 -45.64415144 27.01029596 -36.6796875 16 C-26.49259636 5.11177303 -14.40058761 1.26320944 0 0 Z M-15.5625 21.3125 C-17.109375 22.116875 -17.109375 22.116875 -18.6875 22.9375 C-24.00196875 27.32771332 -26.23001763 32.65008813 -27.5625 39.3125 C-10.7325 39.3125 6.0975 39.3125 23.4375 39.3125 C22.2453757 32.15975419 19.92793045 27.24694683 14.4375 22.4375 C6.04863226 16.49538535 -6.67461859 16.01759193 -15.5625 21.3125 Z " fill="#3BD3DF" transform="translate(628.5625,447.6875)"/>
<path d="M0 0 C3.27066566 -0.08706892 6.54103365 -0.14041241 9.8125 -0.1875 C11.2056543 -0.22520508 11.2056543 -0.22520508 12.62695312 -0.26367188 C13.51962891 -0.27333984 14.41230469 -0.28300781 15.33203125 -0.29296875 C16.56530151 -0.31653442 16.56530151 -0.31653442 17.82348633 -0.34057617 C20.60459411 0.09460558 21.33154071 0.75099758 23 3 C24.17578125 5.48242188 24.17578125 5.48242188 25.3125 8.46875 C25.74328857 9.58540039 26.17407715 10.70205078 26.61791992 11.85253906 C27.07400635 13.05620117 27.53009277 14.25986328 28 15.5 C28.97153619 18.02748319 29.9488426 20.55272596 30.92578125 23.078125 C31.3004528 24.04996735 31.3004528 24.04996735 31.68269348 25.04144287 C34.42835316 32.14744383 37.30153654 39.20005773 40.1875 46.25 C40.66896484 47.42755859 41.15042969 48.60511719 41.64648438 49.81835938 C42.76279246 52.54620447 43.88051984 55.27345551 45 58 C46.75901128 55.36148308 47.83762084 53.14379493 48.99609375 50.22265625 C49.38466553 49.2469165 49.7732373 48.27117676 50.17358398 47.26586914 C50.79922241 45.68020142 50.79922241 45.68020142 51.4375 44.0625 C51.87199463 42.97251709 52.30648926 41.88253418 52.75415039 40.75952148 C54.95130441 35.23474543 57.12206542 29.70073245 59.24864197 24.14845276 C60.23414384 21.57641317 61.226023 19.00684904 62.21780396 16.43722534 C62.92972694 14.58274792 63.63082093 12.72412513 64.33178711 10.86547852 C64.7675708 9.73553467 65.20335449 8.60559082 65.65234375 7.44140625 C66.03382568 6.43795166 66.41530762 5.43449707 66.80834961 4.40063477 C68 2 68 2 71 0 C73.0847168 -0.22705078 73.0847168 -0.22705078 75.44921875 -0.1953125 C76.72055664 -0.18564453 76.72055664 -0.18564453 78.01757812 -0.17578125 C79.33918945 -0.15064453 79.33918945 -0.15064453 80.6875 -0.125 C82.02651367 -0.11146484 82.02651367 -0.11146484 83.39257812 -0.09765625 C85.59532314 -0.07409748 87.79752588 -0.04120329 90 0 C89.44092668 4.02811957 88.57241951 7.44128065 86.9453125 11.1640625 C86.28486938 12.68990967 86.28486938 12.68990967 85.61108398 14.24658203 C85.12067627 15.36145996 84.63026855 16.47633789 84.125 17.625 C83.3239236 19.47030334 82.52286424 21.31561412 81.72221375 23.16110229 C80.82140196 25.23466784 79.91751128 27.30687184 79.01318359 29.37890625 C75.54771093 37.3253668 72.11728452 45.28704246 68.68099976 53.24615479 C67.43733578 56.12538019 66.1920792 59.00391254 64.9465332 61.88232422 C60.97036463 71.07661196 57.02347662 80.28075291 53.16113281 89.5234375 C37.07787139 128.0021455 37.07787139 128.0021455 22.703125 135.140625 C14.28030884 137.81839892 4.83259245 136.65545499 -3.14453125 133.16796875 C-5 132 -5 132 -7 129 C-6.55011719 128.63261719 -6.10023438 128.26523437 -5.63671875 127.88671875 C-3.4702333 125.38931428 -2.79330432 122.957838 -1.8125 119.8125 C-1.46832031 118.72582031 -1.12414062 117.63914062 -0.76953125 116.51953125 C-0.51558594 115.68808594 -0.26164063 114.85664062 0 114 C0.8353125 114.23396484 0.8353125 114.23396484 1.6875 114.47265625 C7.21570193 115.88272127 11.4247056 116.3938236 17 115 C22.74756655 111.03144214 25.16779109 104.16726432 28 98 C28.50402344 96.96617187 29.00804687 95.93234375 29.52734375 94.8671875 C29.99269531 93.85914063 30.45804688 92.85109375 30.9375 91.8125 C31.35902344 90.91144531 31.78054688 90.01039063 32.21484375 89.08203125 C34.42985002 80.38730514 30.59444997 73.07235511 26.9375 65.3125 C25.84910371 62.93651607 24.76400014 60.559291 23.68359375 58.1796875 C23.39426971 57.54487961 23.10494568 56.91007172 22.80685425 56.25602722 C18.86212603 47.55893575 15.19286804 38.74363535 11.5 29.9375 C10.8111457 28.29922276 10.12226283 26.66095754 9.43334961 25.02270508 C7.61208183 20.68599882 5.80140835 16.34499136 4 12 C3.55269531 10.92121582 3.10539063 9.84243164 2.64453125 8.73095703 C2.27714844 7.83103027 1.90976562 6.93110352 1.53125 6.00390625 C1.22767578 5.26084229 0.92410156 4.51777832 0.61132812 3.75219727 C0 2 0 2 0 0 Z " fill="#3CD3DF" transform="translate(921,450)"/>
<path d="M0 0 C0.83265381 0.00523682 1.66530762 0.01047363 2.52319336 0.01586914 C3.42231445 0.0190918 4.32143555 0.02231445 5.24780273 0.02563477 C6.66609375 0.03820312 6.66609375 0.03820312 8.11303711 0.05102539 C9.06243164 0.05553711 10.01182617 0.06004883 10.98999023 0.06469727 C13.34356776 0.07652429 15.69702188 0.09300514 18.05053711 0.11352539 C19.06968063 3.17095594 19.15463731 5.1641626 19.11645508 8.36010742 C19.10181717 9.96790573 19.10181717 9.96790573 19.08688354 11.60818481 C19.0723111 12.76752533 19.05773865 13.92686584 19.04272461 15.12133789 C19.02519835 17.57706285 19.00829104 20.0327923 18.99194336 22.48852539 C18.96105856 26.35941975 18.92563842 30.23008993 18.87915039 34.10083008 C18.83661947 37.83686045 18.81330917 41.57263054 18.79272461 45.30883789 C18.7741037 46.45603302 18.75548279 47.60322815 18.73629761 48.78518677 C18.71124308 56.69679148 19.64930301 63.16864081 23.80053711 69.98852539 C28.24598941 74.18700812 32.40294497 75.29847911 38.36303711 75.55102539 C45.1279625 75.31903206 50.9806144 73.78549516 56.15991211 69.27758789 C61.19004289 63.85252949 63.26809762 58.75323456 63.36938477 51.29174805 C63.38925446 50.17103912 63.40912415 49.0503302 63.42959595 47.8956604 C63.44114716 46.70169647 63.45269836 45.50773254 63.46459961 44.27758789 C63.48396576 43.04309906 63.50333191 41.80861023 63.52328491 40.53671265 C63.58293808 36.60405327 63.62940974 32.6713644 63.67553711 28.73852539 C63.71266254 26.06792087 63.75278236 23.39737175 63.79272461 20.72680664 C63.88862807 14.18915425 63.9737174 7.65142837 64.05053711 1.11352539 C71.25377648 -0.2585202 77.36801534 0.11352539 85.05053711 0.11352539 C85.05053711 30.47352539 85.05053711 60.83352539 85.05053711 92.11352539 C78.12053711 92.11352539 71.19053711 92.11352539 64.05053711 92.11352539 C63.72053711 88.81352539 63.39053711 85.51352539 63.05053711 82.11352539 C61.97803711 83.16540039 60.90553711 84.21727539 59.80053711 85.30102539 C50.88577998 92.95558125 41.57980834 95.09100642 30.11303711 94.53149414 C20.06689834 93.69820614 11.70960915 89.28633541 4.99584961 81.83227539 C2.83883738 78.81765588 1.61973366 76.0356824 0.36303711 72.55102539 C-0.26151367 70.8784668 -0.26151367 70.8784668 -0.89868164 69.17211914 C-3.62043802 60.0974098 -3.09998675 49.98464139 -3.08227539 40.60180664 C-3.08323212 39.46696335 -3.08418884 38.33212006 -3.08517456 37.16288757 C-3.08584949 34.79072005 -3.08404368 32.4185506 -3.07983398 30.04638672 C-3.07442057 26.39750114 -3.07983024 22.7487356 -3.08618164 19.09985352 C-3.08552181 16.78800428 -3.08424263 14.47615513 -3.08227539 12.16430664 C-3.08429962 11.06967606 -3.08632385 9.97504547 -3.08840942 8.84724426 C-3.08525726 7.84497299 -3.0821051 6.84270172 -3.07885742 5.81005859 C-3.07806183 4.92469925 -3.07726624 4.0393399 -3.07644653 3.12715149 C-2.90699946 0.44016728 -2.69019326 0.15666122 0 0 Z " fill="#3CD3DF" transform="translate(476.949462890625,449.886474609375)"/>
<path d="M0 0 C1.15242187 0.19464844 2.30484375 0.38929688 3.4921875 0.58984375 C4.79542969 0.82380859 4.79542969 0.82380859 6.125 1.0625 C7.02913673 4.89974172 7.23076898 8.43752274 7.1875 12.375 C7.17847656 13.44363281 7.16945313 14.51226562 7.16015625 15.61328125 C7.14855469 16.42152344 7.13695312 17.22976563 7.125 18.0625 C3.55190235 19.84904883 -0.68857636 18.95684254 -4.61328125 18.8046875 C-8.21489229 19.08936574 -9.92470202 20.06778526 -12.875 22.0625 C-13.535 22.0625 -14.195 22.0625 -14.875 22.0625 C-16.70240271 27.5967074 -17.27536883 32.69234825 -17.5 38.5 C-17.53867187 39.32693359 -17.57734375 40.15386719 -17.6171875 41.00585938 C-17.71053092 43.02441073 -17.79380961 45.04342331 -17.875 47.0625 C-16.88318726 47.10008423 -16.88318726 47.10008423 -15.87133789 47.13842773 C-12.89317695 47.25403102 -9.9153608 47.37691754 -6.9375 47.5 C-5.89658203 47.53931641 -4.85566406 47.57863281 -3.78320312 47.61914062 C-2.79384766 47.66103516 -1.80449219 47.70292969 -0.78515625 47.74609375 C0.58950806 47.80108032 0.58950806 47.80108032 1.99194336 47.85717773 C4.125 48.0625 4.125 48.0625 5.125 49.0625 C5.19830331 51.92719325 5.21717831 54.76143674 5.1875 57.625 C5.166875 60.409375 5.14625 63.19375 5.125 66.0625 C-2.795 66.0625 -10.715 66.0625 -18.875 66.0625 C-18.545 67.7125 -18.215 69.3625 -17.875 71.0625 C-17.78915285 73.36174624 -17.75726831 75.66326685 -17.76147461 77.96411133 C-17.76132858 78.63783783 -17.76118256 79.31156433 -17.7610321 80.00570679 C-17.76172528 82.21868174 -17.76948964 84.43157111 -17.77734375 86.64453125 C-17.77921005 88.18438165 -17.78063295 89.72423265 -17.78163147 91.26408386 C-17.78543998 95.30660659 -17.79525598 99.34909309 -17.80633545 103.39160156 C-17.81658545 107.52082835 -17.82113677 111.65006102 -17.82617188 115.77929688 C-17.8368798 123.87371635 -17.85446305 131.96809949 -17.875 140.0625 C-24.805 140.0625 -31.735 140.0625 -38.875 140.0625 C-38.875 115.6425 -38.875 91.2225 -38.875 66.0625 C-42.835 66.0625 -46.795 66.0625 -50.875 66.0625 C-52.05294853 62.52865441 -52.00764317 59.65972447 -52 55.9375 C-52.00386719 54.04644531 -52.00386719 54.04644531 -52.0078125 52.1171875 C-51.875 49.0625 -51.875 49.0625 -50.875 48.0625 C-49.23392758 47.85410985 -47.58643707 47.69498275 -45.9375 47.5625 C-42.26942535 47.31035057 -42.26942535 47.31035057 -38.875 46.0625 C-38.92720703 44.39574219 -38.92720703 44.39574219 -38.98046875 42.6953125 C-39.25948016 30.17080018 -38.34435556 19.98637532 -29.875 10.0625 C-21.36367915 1.94522178 -11.80134744 -2.04717252 0 0 Z " fill="#3CD2DE" transform="translate(909.875,401.9375)"/>
<path d="M0 0 C1.4453125 2.2578125 1.4453125 2.2578125 2 4 C1.51789063 4.61488281 1.03578125 5.22976563 0.5390625 5.86328125 C-0.09257813 6.67152344 -0.72421875 7.47976563 -1.375 8.3125 C-2.00148438 9.11300781 -2.62796875 9.91351563 -3.2734375 10.73828125 C-4.57756718 12.44663212 -5.80781817 14.21172726 -7 16 C-11.22906354 15.14051364 -14.68222249 13.16741184 -18.46484375 11.15625 C-23.85579663 8.69751032 -30.26440747 7.87640381 -36 9.6015625 C-38.78629963 10.7509111 -40.85934684 11.85934684 -43 14 C-43.66707548 17.41499591 -43.66707548 17.41499591 -43 21 C-37.8594458 25.50895027 -31.61301154 26.76933675 -25.125 28.5 C-3.71461788 34.25321925 -3.71461788 34.25321925 2.5859375 43.26953125 C6.12275331 50.09890763 6.88054532 58.69206502 4.76171875 66.07421875 C1.53450306 74.233282 -5.26408072 80.18557613 -13 84 C-23.882492 87.83223951 -37.62282473 87.55984421 -48.34375 83.34375 C-54.03194638 80.46619183 -59.78671989 76.85940613 -64 72 C-64 71.34 -64 70.68 -64 70 C-63.29875 69.443125 -62.5975 68.88625 -61.875 68.3125 C-58.89225593 65.9133363 -56.70405467 63.3697362 -54.33203125 60.390625 C-53.89246094 59.93171875 -53.45289063 59.4728125 -53 59 C-52.34 59 -51.68 59 -51 59 C-51 59.66 -51 60.32 -51 61 C-50.360625 61.2475 -49.72125 61.495 -49.0625 61.75 C-46 63 -46 63 -44.19140625 64.0234375 C-36.62829478 68.05519068 -27.78734431 68.53783206 -19.515625 66.33984375 C-17.34204859 65.41792303 -17.34204859 65.41792303 -15 63 C-13.9509961 59.54445774 -13.51421038 57.33979618 -14.75756836 53.91064453 C-18.69039885 47.86263286 -29.40210354 46.73235122 -35.9375 45.125 C-47.23191603 42.1618084 -55.62259397 39.41506542 -61.94140625 29.05078125 C-64.95904695 23.20479835 -65.09656721 16.54078479 -63.1640625 10.30078125 C-59.45565555 2.1746412 -53.31333412 -3.57542518 -45.16796875 -7.21484375 C-29.40122899 -12.92496031 -13.62557754 -9.00443403 0 0 Z " fill="#3CD3DF" transform="translate(753,458)"/>
<path d="M0 0 C6.6 0 13.2 0 20 0 C20.75219772 3.76098858 21.1195218 6.56177289 21.09765625 10.30078125 C21.09515869 11.18161377 21.09266113 12.06244629 21.09008789 12.9699707 C21.08098389 14.07300537 21.07187988 15.17604004 21.0625 16.3125 C21.041875 19.839375 21.02125 23.36625 21 27 C28.92 27 36.84 27 45 27 C45 32.94 45 38.88 45 45 C37.08 45 29.16 45 21 45 C20.97675069 49.4251182 20.95692944 53.85001532 20.94506836 58.27514648 C20.94011162 59.77320076 20.93334426 61.27125039 20.92456055 62.76928711 C19.88206545 81.60433271 19.88206545 81.60433271 25 99 C30.79410461 103.13864615 36.83387252 102.44436877 43.5625 101.5 C44.366875 101.335 45.17125 101.17 46 101 C47.2062252 104.61867559 47.10816918 107.92506251 47.0625 111.6875 C47.05798828 112.38939453 47.05347656 113.09128906 47.04882812 113.81445312 C47.03706927 115.54300538 47.01913454 117.27151365 47 119 C36.13446044 122.44718895 25.26015868 122.31389326 15 117 C7.27214484 112.49457093 3.74170529 104.22511586 1 96 C-0.16319987 85.49525238 -0.00053797 75.09912268 0.4375 64.5625 C0.49094342 63.13739621 0.5436806 61.71226575 0.59570312 60.28710938 C0.72237974 56.85772878 0.8584307 53.42880207 1 50 C0.34 49.67 -0.32 49.34 -1 49 C-0.34 49 0.32 49 1 49 C0.505 47.515 0.505 47.515 0 46 C-3.63 45.67 -7.26 45.34 -11 45 C-11 39.06 -11 33.12 -11 27 C-8.4609375 26.77213542 -5.921875 26.54427083 -3.3828125 26.31640625 C-0.98889139 26.13010715 -0.98889139 26.13010715 1 25 C0.67 16.75 0.34 8.5 0 0 Z " fill="#3CD2DE" transform="translate(793,423)"/>
<path d="M0 0 C4.48223138 2.24111569 5.46062348 4.99009298 7.125 9.5625 C11.34476364 25.16420197 11.5210026 45.51631623 5.125 60.5625 C3.60614887 62.8602409 2.08087683 64.57362525 0.125 66.5625 C-2.9375 66.8125 -2.9375 66.8125 -5.875 65.5625 C-14.9639434 53.83759185 -14.00347978 35.6622418 -12.875 21.5625 C-11.8214225 13.80461243 -10.35084818 6.44795887 -4.875 0.5625 C-2.875 -0.4375 -2.875 -0.4375 0 0 Z " fill="#3BD3E0" transform="translate(251.875,461.4375)"/>
<path d="M0 0 C6.6 0 13.2 0 20 0 C20.73699268 3.68496338 21.10891202 5.87346986 20.87890625 9.42578125 C20.83056641 10.22177734 20.78222656 11.01777344 20.73242188 11.83789062 C20.67634766 12.65451172 20.62027344 13.47113281 20.5625 14.3125 C20.51029297 15.14845703 20.45808594 15.98441406 20.40429688 16.84570312 C20.27532629 18.89750789 20.13844979 20.94881306 20 23 C19.67 23 19.34 23 19 23 C18.8031001 20.64628886 18.61729026 18.2925305 18.4375 15.9375 C18.33308594 14.62652344 18.22867188 13.31554687 18.12109375 11.96484375 C18 8 18 8 19 1 C13.39 1 7.78 1 2 1 C2 8.92 2 16.84 2 25 C1.67 25 1.34 25 1 25 C0.67 16.75 0.34 8.5 0 0 Z " fill="#41CBD6" transform="translate(793,423)"/>
<path d="M0 0 C3.96 0 7.92 0 12 0 C11.01 1.485 11.01 1.485 10 3 C8.0546875 3.29296875 8.0546875 3.29296875 5.875 3.1875 C4.59625 3.125625 3.3175 3.06375 2 3 C2.33 7.95 2.66 12.9 3 18 C2.01 18 1.02 18 0 18 C0 12.06 0 6.12 0 0 Z " fill="#44D8E2" transform="translate(782,450)"/>
<path d="M0 0 C1.65 0.33 3.3 0.66 5 1 C6.00109515 4.31070838 6.10356134 7.30084769 6.0625 10.75 C6.05347656 11.73484375 6.04445313 12.7196875 6.03515625 13.734375 C6.02355469 14.48203125 6.01195312 15.2296875 6 16 C5.34 15.67 4.68 15.34 4 15 C4 11.04 4 7.08 4 3 C-0.29 3 -4.58 3 -9 3 C-9 2.67 -9 2.34 -9 2 C-6.03 2 -3.06 2 0 2 C0 1.34 0 0.68 0 0 Z " fill="#40DBE6" transform="translate(833,525)"/>
<path d="M0 0 C2.13181214 3.74287627 1.95685425 5.78984129 1 10 C0.34 10 -0.32 10 -1 10 C-1 15.61 -1 21.22 -1 27 C-1.33 27 -1.66 27 -2 27 C-2.3690205 7.99544419 -2.3690205 7.99544419 0 0 Z " fill="#40DCE7" transform="translate(333,457)"/>
<path d="M0 0 C0.33 0 0.66 0 1 0 C1 7.92 1 15.84 1 24 C0.34 24 -0.32 24 -1 24 C-1 25.65 -1 27.3 -1 29 C-1.33 29 -1.66 29 -2 29 C-1.36352476 19.33099311 -0.69990504 9.6646462 0 0 Z " fill="#40DAE7" transform="translate(226,508)"/>
<path d="M0 0 C1.09651823 3.41139003 0.94215473 6.20655581 0.5625 9.75 C0.40974609 11.22726562 0.40974609 11.22726562 0.25390625 12.734375 C0.12822266 13.85585938 0.12822266 13.85585938 0 15 C-0.66 15 -1.32 15 -2 15 C-2 16.65 -2 18.3 -2 20 C-2.33 20 -2.66 20 -3 20 C-2.22095672 6.3667426 -2.22095672 6.3667426 0 0 Z " fill="#40D9E5" transform="translate(121,440)"/>
<path d="M0 0 C0.33 0 0.66 0 1 0 C1.33 3.96 1.66 7.92 2 12 C-0.62315032 13.31157516 -2.23033436 12.89649988 -5.125 12.5625 C-6.49011719 12.40974609 -6.49011719 12.40974609 -7.8828125 12.25390625 C-8.58148437 12.17011719 -9.28015625 12.08632813 -10 12 C-10 11.67 -10 11.34 -10 11 C-5.545 10.505 -5.545 10.505 -1 10 C-0.67 6.7 -0.34 3.4 0 0 Z " fill="#42CDD7" transform="translate(915,408)"/>
<path d="M0 0 C5.28 0 10.56 0 16 0 C11.33835239 2.33082381 9.27645508 3.28550343 4.3125 2.0625 C3.50425781 1.86785156 2.69601562 1.67320312 1.86328125 1.47265625 C0.94095703 1.23869141 0.94095703 1.23869141 0 1 C0 0.67 0 0.34 0 0 Z " fill="#3EDBE7" transform="translate(621,542)"/>
<path d="M0 0 C1.65 0 3.3 0 5 0 C5 1.32 5 2.64 5 4 C4.34 4 3.68 4 3 4 C3 6.64 3 9.28 3 12 C2.67 12 2.34 12 2 12 C2 8.37 2 4.74 2 1 C1.34 0.67 0.68 0.34 0 0 Z " fill="#46DAE5" transform="translate(912,404)"/>
<path d="M0 0 C1.60517097 0.08733576 3.20921662 0.19552224 4.8125 0.3125 C6.15248047 0.39951172 6.15248047 0.39951172 7.51953125 0.48828125 C10.30604 1.06313581 11.24135754 1.8206856 13 4 C11.02 4 9.04 4 7 4 C7 3.34 7 2.68 7 2 C4.69 1.67 2.38 1.34 0 1 C0 0.67 0 0.34 0 0 Z " fill="#42DBE7" transform="translate(390,423)"/>
<path d="M0 0 C1.31223496 3.93670488 0.24296256 6.12488144 -1 10 C-1.33 10 -1.66 10 -2 10 C-2 7.03 -2 4.06 -2 1 C-1.34 0.67 -0.68 0.34 0 0 Z " fill="#41DAE6" transform="translate(875,422)"/>
<path d="M0 0 C3 1 3 1 3 1 Z " fill="#44D3DD" transform="translate(867,469)"/>
<path d="" fill="#42D4E0" transform="translate(0,0)"/>
<path d="" fill="#49CFD9" transform="translate(0,0)"/>
<path d="" fill="#44D2DE" transform="translate(0,0)"/>
<path d="" fill="#43D4E0" transform="translate(0,0)"/>
<path d="M0 0 C2 1 2 1 2 1 Z " fill="#4ACCD5" transform="translate(884,543)"/>
<path d="" fill="#43D6E2" transform="translate(0,0)"/>
<path d="M0 0 C2 1 2 1 2 1 Z " fill="#46D2DD" transform="translate(661,520)"/>
<path d="M0 0 C2 1 2 1 2 1 Z " fill="#43D2DC" transform="translate(528,520)"/>
<path d="M0 0 C2 1 2 1 2 1 Z " fill="#43D4E0" transform="translate(706,501)"/>
<path d="" fill="#42D7E2" transform="translate(0,0)"/>
<path d="" fill="#44D4DF" transform="translate(0,0)"/>
<path d="M0 0 C2 1 2 1 2 1 Z " fill="#45D4DD" transform="translate(824,469)"/>
<path d="" fill="#46D5E1" transform="translate(0,0)"/>
<path d="" fill="#5E6462" transform="translate(0,0)"/>
<path d="" fill="#48CCD3" transform="translate(0,0)"/>
<path d="" fill="#42D4DE" transform="translate(0,0)"/>
<path d="" fill="#47CDD9" transform="translate(0,0)"/>
<path d="" fill="#41D2DE" transform="translate(0,0)"/>
<path d="" fill="#44D4DF" transform="translate(0,0)"/>
<path d="" fill="#45D6E0" transform="translate(0,0)"/>
<path d="" fill="#47D4DE" transform="translate(0,0)"/>
<path d="" fill="#45D6E0" transform="translate(0,0)"/>
<path d="" fill="#44D3DD" transform="translate(0,0)"/>
<path d="" fill="#46D6DF" transform="translate(0,0)"/>
<path d="" fill="#3FD5E1" transform="translate(0,0)"/>
<path d="" fill="#46D3DE" transform="translate(0,0)"/>
<path d="" fill="#42D3DF" transform="translate(0,0)"/>
<path d="" fill="#4BCCD6" transform="translate(0,0)"/>
<path d="" fill="#49CED5" transform="translate(0,0)"/>
<path d="" fill="#4AD0D8" transform="translate(0,0)"/>
<path d="" fill="#4BCCD5" transform="translate(0,0)"/>
<path d="" fill="#47D2D8" transform="translate(0,0)"/>
<path d="" fill="#4ACDD7" transform="translate(0,0)"/>
<path d="" fill="#4BCFD9" transform="translate(0,0)"/>
<path d="" fill="#44D5E1" transform="translate(0,0)"/>
<path d="" fill="#45D4DC" transform="translate(0,0)"/>
<path d="" fill="#43D4DF" transform="translate(0,0)"/>
<path d="" fill="#47D6E1" transform="translate(0,0)"/>
<path d="" fill="#45D5E0" transform="translate(0,0)"/>
<path d="" fill="#46D3DC" transform="translate(0,0)"/>
<path d="" fill="#44D1DB" transform="translate(0,0)"/>
<path d="" fill="#48D5E0" transform="translate(0,0)"/>
<path d="" fill="#43D6DE" transform="translate(0,0)"/>
<path d="" fill="#44D7E0" transform="translate(0,0)"/>
<path d="" fill="#47D5E0" transform="translate(0,0)"/>
<path d="" fill="#45D4DB" transform="translate(0,0)"/>
<path d="" fill="#48D1DD" transform="translate(0,0)"/>
<path d="" fill="#44D3DE" transform="translate(0,0)"/>
<path d="" fill="#43D4E2" transform="translate(0,0)"/>
<path d="" fill="#41D5E0" transform="translate(0,0)"/>
<path d="" fill="#44D5E0" transform="translate(0,0)"/>
<path d="" fill="#44D3DE" transform="translate(0,0)"/>
<path d="" fill="#45D1DD" transform="translate(0,0)"/>
<path d="" fill="#44D3DD" transform="translate(0,0)"/>
<path d="" fill="#44D5E0" transform="translate(0,0)"/>
<path d="" fill="#43D2DD" transform="translate(0,0)"/>
<path d="" fill="#42D3DD" transform="translate(0,0)"/>
<path d="" fill="#45D5DF" transform="translate(0,0)"/>
<path d="" fill="#45D6DF" transform="translate(0,0)"/>
<path d="" fill="#44D7E0" transform="translate(0,0)"/>
<path d="" fill="#42D7E1" transform="translate(0,0)"/>
<path d="" fill="#44D7E1" transform="translate(0,0)"/>
<path d="" fill="#42D4DF" transform="translate(0,0)"/>
<path d="" fill="#44D2E1" transform="translate(0,0)"/>
<path d="" fill="#43D2DB" transform="translate(0,0)"/>
<path d="" fill="#45D3DC" transform="translate(0,0)"/>
<path d="" fill="#44D7E2" transform="translate(0,0)"/>
<path d="" fill="#45D1DD" transform="translate(0,0)"/>
<path d="" fill="#42D5E0" transform="translate(0,0)"/>
<path d="" fill="#42D4DF" transform="translate(0,0)"/>
<path d="" fill="#46D3DF" transform="translate(0,0)"/>
<path d="" fill="#46D3DD" transform="translate(0,0)"/>
<path d="" fill="#44D5DE" transform="translate(0,0)"/>
<path d="" fill="#46D2DE" transform="translate(0,0)"/>
<path d="" fill="#45D3DD" transform="translate(0,0)"/>
<path d="" fill="#45D0DC" transform="translate(0,0)"/>
<path d="" fill="#46D5DF" transform="translate(0,0)"/>
<path d="" fill="#47D3DE" transform="translate(0,0)"/>
<path d="" fill="#43D5E0" transform="translate(0,0)"/>
<path d="" fill="#47D1DE" transform="translate(0,0)"/>
<path d="" fill="#44D4DE" transform="translate(0,0)"/>
<path d="" fill="#44D3DE" transform="translate(0,0)"/>
<path d="" fill="#4AD1DA" transform="translate(0,0)"/>
<path d="" fill="#4CCCD6" transform="translate(0,0)"/>
<path d="" fill="#49D2DB" transform="translate(0,0)"/>
<path d="" fill="#47D2DA" transform="translate(0,0)"/>
<path d="" fill="#47D1D9" transform="translate(0,0)"/>
<path d="" fill="#4ACCD7" transform="translate(0,0)"/>
<path d="" fill="#48CFDA" transform="translate(0,0)"/>
<path d="" fill="#44D6DF" transform="translate(0,0)"/>
<path d="" fill="#46D2DF" transform="translate(0,0)"/>
<path d="" fill="#47D5DD" transform="translate(0,0)"/>
<path d="" fill="#46D7E2" transform="translate(0,0)"/>
<path d="" fill="#4BCFDA" transform="translate(0,0)"/>
<path d="" fill="#48D5DF" transform="translate(0,0)"/>
<path d="" fill="#47D4DF" transform="translate(0,0)"/>
<path d="" fill="#52CBD3" transform="translate(0,0)"/>
<path d="" fill="#46D4DE" transform="translate(0,0)"/>
<path d="" fill="#47D0DA" transform="translate(0,0)"/>
<path d="" fill="#4ACED9" transform="translate(0,0)"/>
<path d="" fill="#47D4DF" transform="translate(0,0)"/>
<path d="" fill="#4CCFD9" transform="translate(0,0)"/>
</svg>
